<svg width="670" height="535" viewBox="0 0 670 535" fill="none" xmlns="http://www.w3.org/2000/svg">
<path d="M176.372 152.557C176.159 150.749 175.729 148.978 175.092 147.29C175.011 146.97 174.869 146.673 174.675 146.415C174.481 146.158 174.239 145.948 173.965 145.797C173.598 145.694 173.214 145.69 172.846 145.783L167.102 146.728C166.621 146.752 166.161 146.944 165.791 147.275C165.043 148.121 165.78 149.483 165.757 150.65C165.731 151.962 164.647 153.027 163.471 153.38C162.27 153.64 161.032 153.624 159.838 153.331L151.806 151.989C154.171 151.178 156.277 149.667 157.882 147.631C158.939 146.284 159.501 143.771 157.974 143.134C157.52 143 157.047 142.959 156.579 143.014C152.94 143.044 150.076 139.778 146.67 138.402C144.489 137.579 142.122 137.517 139.908 138.227C137.693 138.937 135.744 140.381 134.339 142.354L138.617 142.576C139.02 142.552 139.419 142.666 139.757 142.902C140.695 143.731 139.529 145.321 139.661 146.618C139.833 148.303 141.914 148.663 143.482 148.833C145.051 149.004 147.041 150.374 146.287 151.862C138.402 154.782 130.378 146.155 122.098 147.217C120.002 147.486 118.023 148.371 115.977 148.927C103.477 152.327 90.555 143.256 77.7861 145.177C74.9474 145.697 72.1575 146.488 69.4494 147.541C67.7115 148.154 65.8988 148.817 64.636 150.24C63.3733 151.662 62.8927 154.095 64.089 155.583C60.7918 155.875 57.4727 155.536 54.2857 154.581C55.1475 155.096 55.8645 155.851 56.3613 156.767C56.8581 157.682 57.1165 158.725 57.1094 159.784C51.9613 160.687 46.9495 162.33 42.2088 164.669C43.0936 166.25 44.127 167.73 45.2929 169.085L38.7755 173.586C40.9774 174.183 42.1158 177.41 40.8353 179.426C43.1184 178.334 44.5334 175.51 46.9748 174.937C48.5742 174.562 50.2017 175.265 51.719 175.926C53.2363 176.587 54.904 177.227 56.4747 176.731C58.0455 176.236 59.204 174.046 58.2059 172.651C64.9197 170.545 71.8582 169.38 78.8495 169.184C79.3888 169.111 79.9358 169.223 80.4129 169.503C81.323 170.182 81.0836 171.648 81.0345 172.837C80.9855 174.027 81.848 175.59 82.837 175.054C81.6734 176.139 82.6681 178.181 83.7845 179.321C84.9008 180.462 86.2463 182.036 85.5628 183.52C85.3845 183.907 85.0819 184.217 84.9103 184.607C84.4037 185.761 85.2081 187.105 86.1568 187.871C87.1055 188.637 88.2676 189.173 88.9267 190.233C89.5857 191.294 89.2864 193.15 88.108 193.298L84.7584 188.727C83.6139 190.002 82.8294 191.601 82.4956 193.336C86.0476 196.458 86.5819 202.811 83.6082 206.567C82.0886 208.486 79.9275 209.652 78.0414 211.149C76.1553 212.646 74.41 214.778 74.4148 217.298C74.423 221.652 74.092 225.697 75.6098 229.734C78.4086 237.178 81.64 244.425 85.2848 251.433C86.2419 253.274 87.4789 255.291 89.4178 255.607C86.9674 249.194 84.7615 242.682 82.8001 236.069C84.0776 236.075 85.5539 236.184 86.3027 237.296C86.9229 238.218 86.7896 239.47 86.9823 240.588C87.2274 241.672 87.6361 242.704 88.1921 243.646L99.8937 266.053C100.864 267.911 101.976 269.904 103.83 270.657C105.016 271.138 106.387 271.047 107.478 271.739C108.333 272.282 108.909 273.246 109.781 273.757C112.246 275.202 115.674 272.43 117.977 274.156C118.636 274.649 119.055 275.433 119.662 275.998C121.79 277.979 125.28 276.654 127.736 278.132C129.319 279.084 130.139 280.988 130.983 282.714C133.098 287.037 136.52 291.272 141.052 291.617C142.476 291.725 143.93 291.435 145.322 291.775C146.714 292.115 148.083 293.421 147.86 294.936C147.477 297.534 148.671 300.379 148.35 302.987C147.766 307.737 141.499 309.824 140.961 314.58C140.843 315.621 141.027 316.696 140.797 317.716C140.514 318.965 139.641 319.982 139.331 321.224C138.743 323.577 140.312 325.919 142.034 327.502C143.757 329.085 145.812 330.45 146.754 332.667C147.75 335.009 147.261 337.74 147.585 340.292C148.292 345.863 152.767 349.993 157.374 352.655C158.777 353.467 160.284 354.252 161.192 355.66C162.378 357.497 162.26 359.918 162.656 362.113C163.625 367.489 167.835 371.918 167.955 377.392C168.04 381.283 166.028 384.813 164.826 388.484C163.699 392.002 163.291 395.739 163.63 399.441C163.969 403.143 165.047 406.723 166.791 409.937C167.69 411.569 168.765 413.108 169.401 414.877C170.536 418.034 170.168 421.623 171.214 424.815C172.598 429.036 176.399 432.522 176.035 436.979C177.761 440.832 181.572 442.725 185.405 443.872L192.273 445.927C193.588 446.321 194.962 446.718 196.301 446.433C197.64 446.148 198.918 444.952 198.884 443.485C195.516 442.669 192.04 441.801 189.263 439.594C186.487 437.388 184.585 433.459 185.638 429.924C186.127 428.285 187.166 426.392 186.178 425.038C185.612 424.263 184.578 424.06 183.94 423.353C182.945 422.249 183.286 420.395 184.002 419.065C184.717 417.734 185.752 416.545 186.04 415.039C186.186 414.197 186.089 413.327 185.761 412.546C185.434 411.765 184.892 411.111 184.209 410.67C185.482 410.153 186.641 409.354 187.608 408.325C188.503 407.228 188.915 405.536 188.212 404.288C190.301 404.573 192.766 404.712 194.137 402.995C195.232 401.623 195.157 399.573 194.724 397.827C194.292 396.081 193.56 394.384 193.538 392.577C198.355 392.823 203.183 392.647 207.975 392.051C207.282 389.543 205.707 387.423 203.585 386.142C205.755 385.747 207.732 382.955 208.417 380.706C209.103 378.458 208.928 376.01 208.504 373.688C208.342 373.09 208.319 372.459 208.44 371.849C208.684 371.012 209.449 370.502 210.157 370.065L220.927 363.415C221.57 363.069 222.152 362.607 222.649 362.048C223.778 360.623 223.611 358.472 223.033 356.707C222.455 354.942 221.53 353.282 221.307 351.426C220.641 345.875 226.169 341.893 228.034 336.668C228.766 334.617 228.915 332.389 229.057 330.198C229.209 327.844 229.22 325.111 227.54 323.594C225.928 322.141 223.411 322.465 221.725 321.113C220.179 319.873 219.646 317.465 217.957 316.464C216.424 315.555 214.501 316.133 212.795 315.705C209.792 314.952 207.903 311.232 204.836 310.887C203.105 310.693 201.147 311.602 199.729 310.519C198.479 309.564 198.429 307.646 198.191 306.018C197.774 303.487 196.646 301.155 194.958 299.335C193.271 297.515 191.105 296.295 188.753 295.839C186.969 295.531 185.027 295.648 183.509 294.594C181.972 293.527 181.267 291.529 180.06 290.051C178.114 287.669 175.05 286.822 172.179 286.097L160.503 283.146C158.43 282.622 155.758 282.344 154.646 284.296C154.316 285.039 154.083 285.827 153.953 286.639C153.536 288.106 152.697 289.393 151.557 290.316C150.417 291.239 149.034 291.749 147.607 291.773C146.628 289.979 145.043 288.66 143.182 288.092C141.998 287.738 140.73 287.698 139.601 287.176C138.986 286.854 138.439 286.399 137.993 285.842C137.547 285.284 137.211 284.634 137.007 283.932C136.803 283.229 136.734 282.49 136.804 281.758C136.875 281.026 137.084 280.318 137.419 279.676C138.092 278.388 138.352 276.897 138.158 275.434C137.965 273.97 137.329 272.616 136.349 271.58C134.363 269.664 131.491 269.201 128.828 269.393C128.131 267.757 129.297 265.911 130.553 264.723C131.81 263.534 133.335 262.365 133.609 260.59C134.039 257.798 130.725 255.677 128.209 256.51C125.692 257.342 124.086 259.97 123.025 262.56C122.415 264.046 121.898 265.611 120.937 266.864C119.976 268.117 118.428 269.014 116.965 268.612C114.893 268.043 114.093 265.396 113.634 263.151C113.019 260.138 112.4 257.083 112.529 254.002C112.658 250.92 113.624 247.756 115.738 245.67C119.182 242.271 124.466 242.604 129.115 243.147C128.016 241.816 128.288 239.575 129.463 238.322C130.083 237.73 130.828 237.309 131.634 237.096C132.44 236.884 133.282 236.885 134.087 237.101C135.488 237.415 136.75 238.226 137.67 239.404C138.99 241.135 139.366 243.473 140.365 245.438C141.363 247.403 143.608 249.079 145.446 248.025C147.033 247.114 147.285 244.748 146.89 242.861C146.495 240.975 145.656 239.14 145.799 237.212C146.072 233.533 149.619 231.319 152.75 229.804C155.88 228.289 159.464 226.251 159.96 222.599C159.977 221.884 160.103 221.177 160.332 220.506C160.679 219.912 161.161 219.425 161.733 219.089C170.869 212.598 180.157 206.028 190.599 202.482C191.143 202.297 191.206 202.503 191.76 202.358C192.535 201.877 192.021 200.545 191.279 200.008C190.536 199.472 189.543 199.06 189.354 198.12C189.216 197.428 189.595 196.75 189.693 196.05C189.935 194.332 188.023 192.746 186.538 193.433C185.699 192.238 187.359 190.851 188.701 190.454C192.731 189.261 196.867 188.535 201.041 188.287C201.522 188.204 202.016 188.295 202.445 188.543C203.146 189.065 203.056 190.263 202.559 191.008C202.063 191.753 201.29 192.22 200.671 192.851C199.994 193.559 199.512 194.453 199.276 195.436C199.04 196.419 199.06 197.453 199.334 198.424C201.512 199.616 203.881 200.842 206.294 200.422C208.707 200.003 210.849 197.088 209.714 194.76C208.658 192.593 205.486 192.104 204.94 189.728C204.301 186.947 207.964 184.473 207.139 181.749C206.778 180.556 205.671 179.853 204.822 178.992C203.82 177.935 203.138 176.578 202.866 175.097C202.594 173.617 202.745 172.083 203.299 170.696C201.917 170.958 200.496 170.859 199.156 170.408C197.816 169.958 196.597 169.168 195.599 168.106C193.757 166.108 192.288 162.956 189.673 163.045C187.272 163.127 185.205 166.137 182.961 165.219C182.409 164.993 181.827 164.533 181.292 164.802C181.117 164.925 180.969 165.088 180.862 165.281C180.754 165.473 180.688 165.69 180.669 165.913C180.099 168.845 181.08 172.184 179.594 174.717C177.977 177.474 174.236 177.856 172.276 180.341C171.211 181.69 170.799 183.508 169.821 184.931C168.843 186.353 166.767 187.258 165.593 186.018C166.17 184.743 166.327 183.295 166.04 181.912C165.752 180.528 165.036 179.29 164.009 178.4C162.919 177.636 161.745 177.021 160.512 176.571C159.135 175.945 157.826 175.16 156.606 174.231C155.994 173.834 155.498 173.263 155.171 172.581C154.913 171.727 154.948 170.801 155.269 169.972C155.865 168.138 156.915 166.513 158.307 165.273C159.698 164.033 161.378 163.225 163.166 162.936C164.729 162.708 166.548 162.788 167.582 161.508C168.13 160.831 168.417 159.807 169.211 159.531C169.72 159.422 170.247 159.492 170.715 159.731L176.549 161.938C177.2 162.254 177.917 162.381 178.628 162.308C178.98 162.257 179.302 162.064 179.528 161.769C179.754 161.474 179.867 161.097 179.846 160.716C179.66 159.674 178.169 159.174 178.305 158.124C178.381 157.784 178.551 157.476 178.793 157.242C180.898 154.833 183.473 152.954 186.333 151.74C189.193 150.526 192.267 150.006 195.336 150.219C196.072 151.519 194.907 153.059 193.938 154.168C192.969 155.278 192.191 157.261 193.363 158.116C193.843 158.379 194.377 158.508 194.916 158.492C196.352 158.701 197.748 159.156 199.05 159.84C201.066 160.783 203.044 161.815 204.982 162.935C204.811 161.561 204.648 160.114 205.132 158.829C205.617 157.544 206.994 156.536 208.196 157.037C209.355 157.519 209.95 159.169 211.185 159.32C212.832 159.522 213.482 156.906 212.794 155.284C212.106 153.663 210.744 152.305 210.63 150.527C210.553 149.327 210.978 147.84 210.087 147.113C209.769 146.895 209.409 146.759 209.035 146.717L186.779 142.314C185.458 142.053 183.548 142.253 183.49 143.696C183.457 144.502 184.126 145.299 183.83 146.039C183.513 146.83 182.474 146.758 181.717 147.037C180.542 147.471 179.952 148.971 180.065 150.301C180.272 151.622 180.748 152.878 181.459 153.978C180.012 153.327 177.82 153.208 176.372 152.557Z" fill="#3F3D56"/>
<path d="M158.614 132.247C157.211 131.748 155.698 131.725 154.282 132.181C152.866 132.637 151.615 133.55 150.698 134.796C150.331 135.315 150.023 136.03 150.33 136.591C150.77 137.397 151.891 137.079 152.717 136.791C153.931 136.324 155.253 136.29 156.487 136.694C157.263 136.98 157.957 137.486 158.736 137.762C159.116 137.932 159.531 137.989 159.938 137.925C160.345 137.861 160.728 137.679 161.046 137.399C161.581 136.813 161.614 135.901 161.615 135.08C161.652 134.805 161.632 134.525 161.555 134.26C161.479 133.995 161.348 133.751 161.173 133.547C160.861 133.353 160.51 133.241 160.15 133.222C159.344 133.062 158.615 132.604 158.089 131.927" fill="#3F3D56"/>
<path d="M166.639 129.846C166.325 129.827 166.012 129.896 165.73 130.045C165.447 130.195 165.206 130.419 165.028 130.698C164.85 130.977 164.742 131.3 164.713 131.637C164.685 131.974 164.738 132.313 164.867 132.621C165.832 132.904 166.839 132.975 167.83 132.829C168.324 132.746 168.784 132.509 169.153 132.145C169.521 131.782 169.782 131.31 169.901 130.788C168.735 131.016 167.531 130.769 166.525 130.095" fill="#3F3D56"/>
<path d="M193.564 125.834C190.938 126.434 188.388 127.365 185.966 128.609C187.108 129.08 188.079 129.934 188.735 131.044C189.391 132.153 189.699 133.46 189.612 134.772C189.51 135.275 189.521 135.798 189.647 136.296C189.926 137.023 190.734 137.296 191.445 137.482C192.722 137.9 194.056 138.083 195.39 138.024C196.057 137.986 196.705 137.77 197.275 137.396C197.845 137.021 198.319 136.5 198.655 135.879C198.848 135.289 199.075 134.713 199.334 134.153C201.037 131.364 206.099 134.737 207.928 132.041C208.573 131.091 208.514 129.661 209.354 128.909C209.789 128.581 210.292 128.374 210.819 128.307C214.498 127.522 218.214 126.953 221.951 126.603C223.721 126.438 226.029 125.754 226.044 123.844C219.375 122.436 212.461 123.436 206.375 126.688C204.182 127.869 201.283 130.352 199.171 128.787C198.38 128.201 198.419 126.623 197.331 125.964C196.218 125.29 194.745 125.564 193.564 125.834Z" fill="#3F3D56"/>
<path d="M215.373 130.218L218.503 130.865C217.927 130.837 217.352 130.942 216.816 131.173C216.281 131.403 215.797 131.754 215.398 132.201C214.998 132.648 214.692 133.182 214.499 133.766C214.307 134.351 214.233 134.973 214.282 135.591C217.213 136.643 220.409 135.619 223.497 135.759C226.585 135.899 230.178 138.27 229.651 141.544C229.491 142.534 228.96 143.523 229.236 144.483C229.43 145.155 229.982 145.633 230.293 146.252C230.942 147.543 230.424 149.176 229.604 150.349C228.785 151.522 227.683 152.459 226.964 153.706C225.175 156.807 226.191 160.817 227.257 164.282C227.565 165.591 228.134 166.812 228.925 167.862C230.504 169.667 233.077 169.824 235.381 169.86C237.058 169.886 238.98 169.797 240.04 168.4C241.425 166.576 240.457 163.731 241.369 161.59C242.196 159.646 244.306 158.812 246.217 158.221C249.719 157.137 253.287 156.216 256.598 154.579C260.708 152.546 264.55 149.379 269.068 149.117C270.335 149.044 271.634 149.205 272.855 148.831C274.076 148.458 275.236 147.323 275.143 145.962C275.064 144.8 274.149 143.946 273.434 143.069C272.719 142.193 272.158 140.845 272.815 139.917L284.657 137.539C283.818 135.08 283.164 131.841 285.093 130.24C285.789 129.663 286.72 129.432 287.313 128.734C288.323 127.544 287.815 125.494 286.649 124.482C285.483 123.469 283.907 123.235 282.414 123.101C277.221 122.638 271.999 122.944 266.796 123.251C256.626 123.85 246.456 124.449 236.286 125.048C234.239 125.169 231.875 124.985 229.997 125.736C228.408 126.371 227.277 127.538 225.459 127.948C222.103 128.705 218.41 128.193 215.373 130.218Z" fill="#3F3D56"/>
<path d="M271.453 156.818C271.134 156.764 270.808 156.843 270.542 157.04C270.366 157.248 270.261 157.515 270.245 157.795C270.043 159.034 270.284 160.309 270.919 161.366C271.243 161.884 271.69 162.299 272.213 162.569C272.737 162.839 273.318 162.953 273.896 162.9C275.306 162.707 276.345 161.414 277.64 160.783C279.638 159.812 288.12 158.298 282.252 154.89C280.23 153.716 278.924 154.752 277.33 155.526C275.517 156.523 273.485 156.97 271.453 156.818V156.818Z" fill="#3F3D56"/>
<path d="M322.844 128.295C322.159 128.595 321.586 129.132 321.214 129.82C321.043 130.169 321.003 130.576 321.103 130.956C321.203 131.336 321.435 131.66 321.751 131.861C322.007 131.961 322.278 132.007 322.55 131.998L325.336 132.087C326.52 132.125 327.998 132.396 328.316 133.622C328.552 134.532 328.024 135.702 328.661 136.353C328.935 136.581 329.264 136.719 329.609 136.75C330.527 137.003 331.485 137.037 332.416 136.847C334.443 136.263 333.378 134.933 334.016 133.749C334.993 131.937 334.824 133.034 336.545 131.995C337.816 131.229 339.458 129.837 338.398 127.883C336.553 124.484 325.567 126.834 322.844 128.295Z" fill="#3F3D56"/>
<path d="M377.828 126.586L376.211 126.818C372.563 127.341 368.895 127.869 365.381 129.047C366.902 129.693 368.498 130.114 370.124 130.298C371.019 130.345 371.909 130.481 372.781 130.704C374.332 131.2 375.896 132.483 377.395 131.826C378.325 131.419 378.628 130.378 379.398 129.827C379.93 129.446 381.946 128.83 382.172 128.445C383.994 125.338 379.229 126.385 377.828 126.586Z" fill="#3F3D56"/>
<path d="M384.931 134.489C382.771 135.788 380.766 137.366 378.962 139.189C378.202 139.957 377.426 140.912 377.495 142.031C377.586 143.518 379.06 144.381 380.336 144.962L385.508 147.315C386.135 146.365 385.561 145.053 384.912 144.119C384.264 143.185 383.494 142.104 383.78 140.98C384.107 139.697 385.562 139.26 386.782 139.039C388.77 138.679 394.132 138.708 393.487 135.264C392.728 131.206 386.927 133.29 384.931 134.489Z" fill="#3F3D56"/>
<path d="M383.891 364.121C383.399 365.653 383.352 367.458 384.204 368.795C385.16 370.296 387.072 370.856 388.726 370.475C390.374 370.004 391.843 368.989 392.925 367.573C393.915 366.387 394.73 365.044 395.34 363.592C396.192 361.329 396.793 358.965 397.13 356.551L398.736 347.489C399.095 345.463 399.081 339.254 395.618 341.277C394.672 341.83 392.482 346.193 391.49 347.431C389.704 349.661 389.467 351.825 388.527 354.527C387.348 357.911 384.981 360.731 383.891 364.121Z" fill="#3F3D56"/>
<path d="M566.784 410.495C565.651 410.02 564.551 409.457 563.493 408.811C562.433 411.945 561.869 415.249 561.825 418.584L569.579 413.867C570.745 413.158 572.067 412.172 572.042 410.732C572.052 410.554 572.018 410.376 571.943 410.217C571.867 410.059 571.753 409.925 571.613 409.83C571.441 409.755 571.253 409.732 571.07 409.761C569.92 409.864 568.872 410.472 567.787 410.895C566.703 411.318 565.434 411.542 564.439 410.914" fill="#3F3D56"/>
<path d="M607.684 413.295C606.833 413.544 606.002 413.865 605.198 414.254C603.419 415.228 602.208 417.076 600.607 418.358C599.075 419.584 597.231 420.258 595.42 420.913C594.887 421.419 595.132 422.438 595.71 422.883C596.332 423.263 597.045 423.435 597.758 423.377C599.639 423.422 601.621 423.442 603.268 422.465C604.197 421.818 605.066 421.076 605.863 420.251C607.789 418.523 610.103 417.383 612.393 416.282C613.226 415.943 613.997 415.448 614.669 414.819C616.108 413.295 616.209 410.943 614.134 410.425C612.457 410.006 609.281 412.74 607.684 413.295Z" fill="#3F3D56"/>
<path d="M625.756 400.605C625.849 399.556 625.719 398.499 625.376 397.512C625.034 396.525 624.487 395.634 623.777 394.908C623.756 397.006 623.696 399.242 622.599 400.977C621.816 402.213 620.59 403.048 619.733 404.226C618.876 405.403 618.496 407.27 619.501 408.303C620.143 408.829 620.926 409.118 621.733 409.129C623.734 409.383 626.05 409.524 627.453 407.97C628.219 407.122 628.592 405.865 629.526 405.242C629.874 405.085 630.185 404.846 630.436 404.542C630.821 403.883 630.208 403.014 629.518 402.777C628.829 402.539 628.068 402.651 627.375 402.425C626.682 402.2 626.045 401.362 626.401 400.683" fill="#3F3D56"/>
<path d="M593.637 323.676C592.587 323.951 591.5 324.02 590.428 323.88C588.646 323.528 587.26 322.085 585.822 320.901C582.403 318.103 578.247 316.542 573.952 316.443C570.044 316.363 566.1 317.502 562.262 316.707C562.512 318.207 563.706 319.331 564.979 320C566.253 320.668 567.658 321.004 568.938 321.659C570.987 322.718 572.612 324.536 573.515 326.779C573.927 327.813 574.187 328.938 574.811 329.841C576.087 331.687 578.505 332.092 580.639 331.941C583.422 331.744 586.328 330.884 588.917 331.998C590.898 332.851 592.315 334.714 593.969 336.163C595.622 337.612 597.951 338.687 599.85 337.642C597.878 336.956 596.161 335.609 594.951 333.8C593.741 331.991 593.1 329.813 593.123 327.585C594.985 327.769 600.349 327.697 600.06 324.296C599.815 321.413 595.236 323.365 593.637 323.676Z" fill="#3F3D56"/>
<path d="M569.275 347.132C569.605 345.182 571.414 343.461 570.851 341.574C570.461 340.269 569.054 339.625 567.779 339.592C566.505 339.56 565.253 339.968 563.978 340.007C563.149 339.96 562.317 339.972 561.489 340.045C558.96 340.492 557.4 343.342 555.016 344.356C553.567 344.972 551.938 344.854 550.431 345.28C547.008 346.247 544.843 349.724 542.451 352.526C538.585 357.035 533.55 360.192 527.996 361.588C526.05 362.073 523.959 362.383 522.412 363.741C520.364 365.54 519.86 368.624 519.404 371.425C518.145 379.16 516.221 386.753 513.657 394.105L521.783 395.221C523.328 395.433 524.929 395.64 526.417 395.148C527.499 394.71 528.524 394.123 529.466 393.403C533.085 390.987 537.135 389.416 541.355 388.789C543.483 388.475 545.714 388.418 547.711 389.268C549.708 390.118 551.421 392.047 551.589 394.349C552.452 394.06 553.373 394.029 554.251 394.258C555.13 394.488 555.934 394.97 556.578 395.653C557.851 397.047 558.684 398.835 558.96 400.765C559.174 401.96 559.388 403.392 560.42 403.894C561.262 404.303 562.227 403.862 563.148 403.783C566.272 403.514 568.864 407.43 571.935 406.756C575.229 406.033 576.037 400.73 579.25 399.668C581.095 399.058 583.684 399.8 584.567 397.955C585.346 396.329 583.792 394.452 583.952 392.631C584.15 390.388 586.61 389.436 588.507 388.48C595.046 385.181 598.15 375.72 594.981 368.741C593.103 364.607 589.409 361.352 588.727 356.81C588.202 353.316 589.483 349.241 587.411 346.49C586.356 345.091 584.571 344.318 583.944 342.649C583.549 341.598 583.708 340.405 583.495 339.295C583.283 338.185 582.382 337.023 581.362 337.311C578.401 338.146 577.457 347.978 575.872 350.366C573.462 353.997 568.516 351.606 569.275 347.132Z" fill="#3F3D56"/>
<path d="M514.556 327.391C513.544 327.086 512.439 326.786 511.47 327.221C510.5 327.657 509.934 329.187 510.712 329.946C516.799 329.691 522.922 329.438 528.957 330.327C535.91 331.351 542.791 333.886 549.774 333.14C545.785 331.875 541.73 330.864 537.631 330.111L530.794 328.707C528.96 328.294 527.107 327.986 525.242 327.785C521.342 327.439 518.39 328.547 514.556 327.391Z" fill="#3F3D56"/>
<path d="M520.649 304.603C520.143 304.558 519.517 304.519 519.256 304.986C519.006 305.432 519.292 306.022 519.158 306.522C518.974 307.206 518.142 307.38 517.486 307.287C516.829 307.194 516.12 306.971 515.539 307.311C515.244 307.528 515.022 307.841 514.907 308.205C514.792 308.568 514.79 308.962 514.9 309.326C515.138 310.051 515.523 310.71 516.026 311.255C516.886 312.419 517.865 313.476 518.946 314.403C521.038 316.063 523.872 316.863 525.189 319.273C525.375 319.74 525.661 320.153 526.023 320.479C526.655 320.91 527.48 320.582 528.161 320.248L530.548 319.075C530.978 318.909 531.362 318.628 531.664 318.259C532.21 317.464 531.875 316.333 531.417 315.476C530.959 314.619 530.373 313.732 530.471 312.75C530.647 310.998 532.742 310.328 533.603 308.829C534.472 307.318 533.906 305.372 534.006 303.599C534.124 301.526 535.335 298.829 533.386 297.28C531.729 295.964 530.145 297.18 528.955 298.633C526.447 301.698 525.26 305.017 520.649 304.603Z" fill="#3F3D56"/>
<path d="M535.138 273.627C535.953 275.305 537.652 276.306 538.541 277.939C539.504 279.71 539.394 281.998 540.439 283.714C541.511 285.475 543.669 286.41 544.27 288.412C544.927 290.599 543.437 293.256 544.624 295.167C544.846 295.479 545.125 295.739 545.445 295.929C545.764 296.119 546.117 296.236 546.481 296.272C546.845 296.308 547.211 296.262 547.558 296.138C547.904 296.013 548.223 295.813 548.493 295.549C548.994 294.963 549.262 294.19 549.24 293.395C549.218 292.6 548.908 291.845 548.376 291.292C547.673 290.603 546.664 290.306 546.077 289.501C545.772 289.037 545.568 288.504 545.482 287.942C545.162 286.323 545.213 284.645 545.631 283.052C545.788 282.647 545.828 282.202 545.745 281.773C545.481 280.947 544.441 280.888 543.711 280.505C542.054 279.635 542.094 277.121 542.384 275.162C542.191 276.466 537.87 274.248 537.418 273.51C536.519 272.043 537.008 269.212 536.83 267.591C534.89 268.596 534.142 271.576 535.138 273.627Z" fill="#3F3D56"/>
<path d="M491.612 299.436C490.815 298.477 489.614 297.473 488.545 298.051C487.729 298.493 487.505 299.706 487.825 300.626C488.214 301.519 488.814 302.287 489.564 302.855C491.792 304.83 494.191 306.613 496.135 308.909C499.613 313.018 501.456 318.563 505.238 322.348C505.999 323.226 507.006 323.812 508.105 324.016C509.207 324.126 510.445 323.368 510.571 322.186C510.676 321.212 510.044 320.341 509.427 319.619C507.958 317.901 506.349 316.319 504.962 314.524C504.321 313.834 503.918 312.93 503.82 311.961C503.813 310.995 504.633 309.983 505.505 310.222C504.445 309.931 503.659 308.033 502.104 307.677C500.804 307.379 500.49 308.244 498.943 307.53C495.993 306.17 493.678 301.922 491.612 299.436Z" fill="#3F3D56"/>
<path d="M560.931 205.995C560.085 205.724 559.253 205.405 558.438 205.038C556.248 204.331 553.35 206.061 553.642 208.5C553.836 210.12 555.238 211.212 556.013 212.617C557.162 214.701 556.855 217.345 556.252 219.678C556.104 220.401 555.822 221.084 555.423 221.687C554.866 222.324 554.199 222.84 553.46 223.205C550.502 224.988 547.894 227.371 545.779 230.221C545.549 230.484 545.389 230.809 545.315 231.161C545.21 231.984 545.98 232.584 546.415 233.27C547.382 234.796 546.683 236.848 546.779 238.691C546.764 238.952 546.812 239.212 546.917 239.447C547.022 239.682 547.181 239.885 547.38 240.036C547.962 240.354 548.653 239.813 548.969 239.198C550.017 237.157 549.227 233.88 551.193 232.896C551.565 232.71 552.016 232.631 552.264 232.28C552.658 231.723 552.278 230.898 552.478 230.232C552.777 229.232 554.049 229.187 555.026 229.231C556.708 229.307 558.389 229.066 559.994 228.521C560.623 228.36 561.195 228.004 561.638 227.497C562.226 226.708 562.174 225.587 562.056 224.584C561.468 219.586 559.995 214.755 557.718 210.352C559.445 210.589 561.324 210.795 562.814 209.827C563.649 209.285 564.65 207.665 564.236 206.562C563.581 204.818 562.399 206.286 560.931 205.995Z" fill="#3F3D56"/>
<path d="M339.507 233.484C339.713 234.676 339.917 235.93 339.553 237.078C339.19 238.226 338.047 239.185 336.968 238.833C336.13 238.56 335.647 237.655 335.052 236.965C331.745 233.126 324.283 235.348 322.24 230.6C321.406 228.662 321.972 226.34 321.404 224.294C321.045 223.112 320.331 222.091 319.374 221.392C318.417 220.693 317.271 220.356 316.116 220.433C315.063 220.596 314.038 220.925 313.074 221.409C306.614 224.19 299.832 226.014 292.915 226.829C291.6 226.915 290.3 227.17 289.042 227.587C286.201 228.694 284.261 231.524 282.88 234.413C281.499 237.301 280.479 240.429 278.627 242.995C276.681 245.692 273.955 247.58 271.411 249.623C270.431 250.302 269.615 251.221 269.03 252.305C268.479 253.523 268.51 254.938 268.553 256.291L269.073 272.723C269.139 274.837 269.223 277.026 270.103 278.917C271.202 281.279 273.373 282.826 274.879 284.913C276.416 287.057 277.216 289.706 277.145 292.412C277.113 293.5 277.012 294.786 277.801 295.469C278.28 295.804 278.841 295.977 279.412 295.968L300.089 297.787C303.727 298.107 307.758 298.633 310.132 301.612C311.253 303.018 312.153 305.04 313.87 305.191C314.606 305.255 315.323 304.93 316.059 304.868C317.917 304.71 319.55 306.226 320.58 307.896C322.139 310.441 322.847 313.48 322.587 316.515C322.418 318.42 321.868 320.271 321.75 322.181C321.299 329.446 327.028 335.757 327.139 343.037C327.205 347.319 325.314 351.32 323.47 355.117C326.445 359.962 324.009 366.415 325.194 372.08C326.317 377.454 330.486 381.662 331.525 387.056C332 389.525 332.028 392.564 334.053 393.836C334.942 394.302 335.927 394.514 336.915 394.452C342.869 394.528 348.755 393.087 354.092 390.248C356.596 388.912 359.192 386.917 359.63 383.948C359.982 381.554 358.853 378.876 360.002 376.791C361.357 374.333 364.827 374.527 366.821 372.638C370.054 369.572 367.533 363.725 368.843 359.309C370.021 355.34 374.074 353.231 376.084 349.669C376.875 348.137 377.442 346.484 377.767 344.767C378.687 340.663 379.26 336.478 379.479 332.263C379.532 329.702 379.708 327.146 380.005 324.604C382.171 310.134 395.478 300.445 399.799 286.545C400.211 285.217 400.405 283.449 399.306 282.698C398.655 282.363 397.916 282.28 397.214 282.462L387.682 283.754C386.499 283.914 385.244 284.064 384.156 283.536C383.069 283.007 382.29 281.529 382.867 280.406C384.486 277.253 381.155 273.27 379.676 270.039C375.692 261.34 370.947 253.068 365.506 245.335C365.158 244.937 364.939 244.428 364.885 243.885L367.59 243.982C366.677 240.459 365.17 236.605 361.986 235.316C360.192 234.59 358.206 234.841 356.292 234.954C350.81 235.275 344.933 234.386 339.507 233.484Z" fill="#3F3D56"/>
<path d="M356.296 154.104C357.731 155.741 359.338 157.478 361.414 157.763C365.08 158.267 367.716 154.192 369.394 150.652C369.456 151.555 369.843 152.395 370.473 152.996C371.103 153.596 371.926 153.908 372.767 153.867C373.672 153.703 374.535 153.34 375.304 152.8C382.567 148.533 390.703 146.272 398.98 146.221C398.901 145.547 399.056 144.865 399.417 144.307C399.777 143.749 400.317 143.354 400.933 143.199C402.616 142.84 404.131 144.405 404.943 146.029C405.755 147.654 406.261 149.537 407.551 150.754C408.841 151.97 411.338 151.917 411.848 150.156C412.337 148.465 410.698 147.023 409.337 146.026C407.976 145.029 406.541 143.184 407.457 141.713C414.412 140.058 421.41 138.397 428.526 138.068C429.738 138.113 430.945 137.89 432.073 137.411C433.158 136.839 434.021 135.539 433.729 134.278C432.176 134.671 430.549 134.557 429.057 133.952C427.564 133.346 426.273 132.277 425.348 130.88C435.222 130.004 445.725 129.257 454.476 134.252C455.526 136.675 450.174 138.692 451.606 140.878C452.063 141.575 452.978 141.657 453.771 141.672C459.852 141.794 465.969 141.913 471.981 140.926C474.179 140.565 476.398 140.056 478.604 140.348C482.278 140.836 485.421 143.471 489.036 144.33C490.507 144.68 492.157 144.692 493.397 143.772C494.638 142.852 495.171 140.757 494.154 139.561C497.558 135.975 503.207 136.864 507.697 138.581C512.187 140.298 516.441 143.066 521.193 143.449C524.601 143.724 528.057 142.738 531.424 143.364C533.54 143.758 535.51 144.77 537.578 145.392C541.489 146.568 545.627 146.32 549.689 146.376C560.051 146.526 570.3 148.716 579.929 152.836C581.182 153.274 582.329 154.003 583.291 154.971C584.187 156.002 584.644 157.605 584.041 158.859L574.092 157.296C575.029 159.28 577.454 159.618 579.424 160.302C581.393 160.987 583.436 163.325 582.252 165.15C580.118 164.42 578.184 166.713 577.106 168.824C576.028 170.934 574.715 173.461 572.478 173.59C570.476 173.705 568.054 171.872 566.748 173.509C568.552 175.954 570.096 178.608 571.352 181.422C572.642 184.31 573.561 187.949 571.818 190.547C571.543 191.011 571.127 191.358 570.641 191.528C569.218 191.916 568.293 190.043 567.272 188.909C565.985 187.479 564.04 187.074 562.298 186.403C560.556 185.733 558.721 184.414 558.584 182.43C558.5 181.196 559.106 180.048 559.552 178.907C560.303 176.985 560.631 174.902 560.511 172.821C560.414 171.146 559.977 169.404 558.858 168.235C557.74 167.065 555.809 166.694 554.608 167.765C554.047 168.265 553.598 169.065 552.871 169.095C551.585 169.147 550.598 166.738 549.563 167.56C549.685 168.437 549.516 169.331 549.086 170.087C545.999 172.973 541.257 171.752 537.278 172.772C535.386 173.354 533.574 174.204 531.891 175.301C531.261 175.59 530.725 176.074 530.351 176.69C529.854 177.728 530.402 179.057 531.277 179.747C532.206 180.359 533.249 180.742 534.332 180.868C539.183 181.856 544.105 183.384 547.936 186.734C551.766 190.084 554.277 195.621 553.065 200.767L543.498 190.94C543.862 195.066 544.068 199.203 544.117 203.352C544.179 204.162 544.075 204.977 543.814 205.74C543.132 207.359 541.283 207.904 539.663 208.262C539.213 208.354 538.786 208.547 538.409 208.829C538.033 209.111 537.717 209.476 537.481 209.899C537.246 210.322 537.096 210.793 537.042 211.283C536.988 211.773 537.031 212.269 537.168 212.739C537.743 214.756 539.178 216.328 540.492 217.895C541.806 219.461 543.099 221.242 543.271 223.343C543.443 225.444 541.968 227.813 540.011 227.667C538.527 227.556 537.426 226.128 536.793 224.681C536.16 223.234 535.784 221.622 534.833 220.392C531.954 216.671 525.489 218.265 522.91 214.298C522.253 215.099 521.797 216.068 521.586 217.112C521.375 218.156 521.416 219.241 521.704 220.264C522.904 219.456 524.546 220.206 525.447 221.379C526.349 222.552 526.774 224.056 527.482 225.374C528.437 227.152 529.957 228.728 530.09 230.776C530.055 231.55 530.067 232.326 530.127 233.099C530.363 234.34 531.339 235.231 532.016 236.268C533.59 238.682 533.512 241.998 532.497 244.736C531.483 247.474 529.66 249.763 527.855 251.981C524.701 255.856 521.483 259.708 517.745 262.926C516.678 263.844 515.54 264.747 514.875 266.031C514.211 267.314 514.177 269.116 515.198 270.093C514.467 270.132 513.157 270.518 512.427 270.558C512.17 267.407 512.114 264.242 512.26 261.083C509.377 259.595 506.273 263.58 506.645 266.995C507.017 270.409 509.314 273.149 510.95 276.104C512.146 278.264 513.035 280.783 512.636 283.26C512.236 285.737 510.179 288.022 507.85 287.803C504.144 287.456 502.594 281.737 498.924 281.083C498.601 281.001 498.261 281.037 497.959 281.186C497.414 281.507 497.319 282.291 497.289 282.958C497.139 286.232 497.009 289.637 498.198 292.656C499.937 297.072 504.431 300.782 503.488 305.47C498.41 302.932 495.77 296.81 494.571 290.93C493.372 285.049 493.172 278.876 491.024 273.317C489.392 275.565 485.962 273.707 484.471 271.348C483.058 269.112 482.188 266.525 480.816 264.259C479.445 261.993 477.344 259.964 474.832 259.839C472.198 259.708 469.914 261.651 467.905 263.487C466.253 264.997 464.557 266.566 463.592 268.653C462.187 271.69 462.554 275.27 462.486 278.661C462.413 282.327 461.691 286.194 459.366 288.878C457.042 291.562 452.752 292.496 450.189 290.078C448.85 288.815 448.202 286.928 447.625 285.118C444.843 276.388 442.525 267.495 440.685 258.483C440.254 260.54 438.574 263.191 436.968 261.979C436.608 261.654 436.316 261.249 436.112 260.793C433.118 255.338 427.573 252.066 421.97 250.104C416.368 248.142 410.473 247.226 404.933 245.07C401.828 243.861 398.862 242.273 396.094 240.337C395.389 241.452 394.977 242.751 394.902 244.096C394.827 245.442 395.092 246.784 395.67 247.981C396.899 250.32 399.68 251.674 402.06 250.856C403.291 250.434 404.329 249.515 405.55 249.062C406.771 248.609 408.409 248.831 408.943 250.096C409.454 251.306 408.682 252.77 409.065 254.033C409.648 255.957 412.348 256.106 413.292 257.857C413.995 259.16 413.417 260.89 412.414 261.941C411.411 262.993 410.073 263.569 408.848 264.301C404.876 266.676 402.051 270.73 398.579 273.884C395.107 277.038 390.209 279.34 386.072 277.317C387.058 271.949 381.109 268.007 380.015 262.663C379.655 260.904 379.841 259.035 379.327 257.321C378.582 254.839 376.534 253.133 374.854 251.252C372.816 248.946 371.228 246.224 370.184 243.248C369.14 240.271 368.662 237.1 368.776 233.922C368.867 231.713 369.245 229.468 368.776 227.316C368.308 225.163 366.65 223.079 364.596 223.176C359.903 223.399 353.991 223.775 351.529 219.474C350.65 217.939 350.268 215.691 351.538 214.515C352.435 213.686 353.758 213.764 354.935 213.889L365.508 215.007C367.981 215.268 370.654 215.484 372.776 214.094C374.898 212.704 375.818 209.015 373.853 207.38C372.417 206.185 369.845 206.25 369.427 204.351C369.08 202.769 370.709 200.974 369.829 199.652C369.198 198.704 367.78 198.967 366.921 199.677C366.061 200.388 365.438 201.427 364.476 201.965C362.789 202.909 360.773 202.011 358.958 201.4C357.142 200.79 354.709 200.738 353.828 202.55C352.844 204.577 354.702 207.233 353.725 209.264C352.433 211.95 348.057 210.421 346.243 212.731C344.161 215.381 347.66 219.333 346.957 222.719C346.061 223.197 345.065 223.416 344.066 223.356C343.067 223.295 342.1 222.957 341.259 222.375C340.432 221.77 339.772 220.936 339.351 219.96C338.93 218.985 338.763 217.905 338.867 216.835C339.041 215.312 339.779 213.757 339.284 212.318C338.884 211.154 337.797 210.461 336.787 209.861L326.512 203.757C325.558 205.659 326.764 208.018 328.272 209.447C329.781 210.876 331.67 211.952 332.661 213.832C333.288 215.135 333.428 216.646 333.054 218.056C332.679 219.467 331.818 220.671 330.646 221.421C330.499 221.53 330.332 221.604 330.156 221.637C329.98 221.67 329.8 221.662 329.627 221.612C329.463 221.509 329.32 221.371 329.207 221.207C329.094 221.043 329.012 220.856 328.967 220.658C327.154 215.67 324.432 210.753 320.08 208.148C315.729 205.542 309.476 206.078 306.622 210.467C305.944 211.509 305.489 212.697 304.899 213.799C301.762 219.655 295.037 222.428 288.753 222.246C288.139 222.283 287.527 222.128 286.992 221.801C285.976 221.048 286.022 219.448 286.178 218.132L286.837 212.546C286.97 211.425 287.162 210.185 287.987 209.485C289.151 208.498 290.831 209.121 292.313 209.098C293.436 209.041 294.516 208.615 295.406 207.876C296.296 207.138 296.953 206.123 297.289 204.97C297.588 203.805 297.586 202.574 297.283 201.41C296.98 200.246 296.387 199.194 295.569 198.365C294.889 197.679 293.977 196.817 294.336 195.893C294.479 195.637 294.673 195.418 294.903 195.251C295.134 195.084 295.395 194.974 295.67 194.927C298.332 194.096 301.146 193.878 303.764 192.897C306.382 191.917 308.922 189.91 309.542 187.005C309.732 186.114 309.818 185.036 310.562 184.595C310.935 184.425 311.336 184.337 311.741 184.336C313.161 184.118 314.454 183.338 315.365 182.148C316.276 180.957 316.739 179.444 316.664 177.904C317.919 176.962 319.677 177.655 320.891 178.658C322.105 179.66 323.176 180.985 324.653 181.417C327.406 182.222 330.066 179.602 332.919 179.59C334.119 179.585 335.361 180.041 336.49 179.604C337.634 179.161 338.317 177.936 339.195 177.032C340.073 176.127 341.614 175.575 342.425 176.55L341.735 171.052C343.125 171.429 344.575 171.483 345.986 171.208C347.398 170.934 348.738 170.338 349.918 169.461L340.993 166.22C340.683 166.136 340.396 165.971 340.159 165.74C339.51 164.989 340.155 163.819 340.682 162.965C341.944 160.922 342.156 157.558 340.081 156.541C338.664 155.847 337.038 156.68 335.678 157.495L329.164 161.4C328.957 162.731 330.472 163.485 331.41 164.381C331.977 164.924 332.379 165.638 332.562 166.431C332.745 167.223 332.701 168.056 332.436 168.821C332.17 169.586 331.696 170.247 331.074 170.716C330.453 171.186 329.714 171.443 328.955 171.453C329.384 172.052 329.682 172.748 329.827 173.488C329.972 174.228 329.96 174.993 329.793 175.728L325.41 176.067C324.918 176.173 324.407 176.066 323.989 175.769C323.52 175.321 323.583 174.537 323.475 173.873C323.213 172.271 321.754 171.149 320.264 170.861C318.775 170.573 317.252 170.942 315.777 171.306C315.151 171.548 314.463 171.531 313.848 171.258C313.496 171.012 313.228 170.648 313.085 170.223C312.439 168.538 313.043 166.557 314.081 165.116C315.12 163.675 316.541 162.622 317.818 161.422C320.87 158.543 323.113 154.803 324.293 150.625C326.705 149.539 329.203 148.062 331.616 146.975C335.335 144.951 339.506 144.082 343.66 144.467L351.83 144.635C354.249 144.684 356.733 144.748 358.97 145.739C361.207 146.731 363.172 148.875 363.327 151.47C363.373 151.764 363.35 152.066 363.258 152.347C363.167 152.629 363.01 152.88 362.803 153.079C362.487 153.264 362.129 153.351 361.77 153.329C359.514 153.414 358.552 154.019 356.296 154.104Z" fill="#3F3D56"/>
<path d="M291.174 181.63C291.493 181.305 291.723 180.892 291.838 180.436C291.953 179.98 291.949 179.499 291.826 179.045C291.049 178.723 290.204 178.64 289.386 178.807C288.568 178.973 287.809 179.381 287.195 179.985C286.711 180.512 286.294 181.104 285.955 181.748C284.881 183.631 283.931 185.88 284.554 187.985C284.604 188.215 284.697 188.431 284.827 188.622C284.956 188.812 285.12 188.973 285.308 189.094C285.587 189.215 285.887 189.265 286.187 189.242C287.37 189.241 288.551 189.163 289.725 189.008C290.446 188.914 291.284 188.695 291.562 187.974C291.929 187.026 291.042 185.953 291.3 184.965C291.47 184.523 291.728 184.127 292.055 183.803C292.218 183.64 292.343 183.438 292.42 183.214C292.497 182.99 292.525 182.75 292.501 182.513C292.396 182.049 291.736 181.786 291.498 182.189" fill="#3F3D56"/>
<path d="M297.307 173.083C296.256 172.823 295.173 172.75 294.1 172.866C293.863 172.859 293.628 172.916 293.417 173.033C293.213 173.195 293.065 173.426 292.996 173.689C292.77 174.47 292.825 175.315 293.152 176.054C293.479 176.794 294.053 177.374 294.76 177.679C295.145 177.774 295.514 177.934 295.853 178.151C296.76 178.908 296.182 180.454 296.354 181.674C296.546 183.044 297.78 184.193 297.554 185.558C297.376 186.632 296.308 187.483 296.48 188.559C296.66 189.686 297.99 190.024 299.05 190.114C299.665 190.23 300.297 190.152 300.871 189.89C301.447 189.467 301.856 188.83 302.02 188.101C302.454 186.713 302.636 185.247 302.557 183.785C302.553 183.119 302.397 182.465 302.104 181.879C301.785 181.415 301.431 180.979 301.046 180.577C299.015 178.037 301.154 174.248 297.307 173.083Z" fill="#3F3D56"/>
<path opacity="0.8" d="M564.407 372.051C564.407 372.051 408.836 276.053 341.861 294.242C341.861 294.242 199.921 310.663 183.471 346.788C183.471 346.788 138.351 195.213 121.901 190.16" stroke="#3498DB" stroke-width="2" stroke-miterlimit="10"/>
<path opacity="0.8" d="M183.471 346.788C209.556 272.011 444.556 189.15 444.556 189.15C411.186 198.244 341.861 294.242 341.861 294.242C341.861 294.242 195.221 179.55 121.901 190.16C121.901 190.16 444.791 201.528 564.407 372.051" stroke="#3498DB" stroke-width="2" stroke-miterlimit="10"/>
<path d="M121.901 197.486C125.665 197.486 128.716 194.206 128.716 190.16C128.716 186.114 125.665 182.834 121.901 182.834C118.137 182.834 115.086 186.114 115.086 190.16C115.086 194.206 118.137 197.486 121.901 197.486Z" fill="#3498DB"/>
<path d="M183.471 354.114C187.235 354.114 190.286 350.834 190.286 346.788C190.286 342.742 187.235 339.462 183.471 339.462C179.707 339.462 176.656 342.742 176.656 346.788C176.656 350.834 179.707 354.114 183.471 354.114Z" fill="#3498DB"/>
<path d="M444.556 196.476C448.32 196.476 451.371 193.196 451.371 189.15C451.371 185.104 448.32 181.824 444.556 181.824C440.792 181.824 437.741 185.104 437.741 189.15C437.741 193.196 440.792 196.476 444.556 196.476Z" fill="#3498DB"/>
<path d="M564.407 379.377C568.17 379.377 571.222 376.097 571.222 372.051C571.222 368.005 568.17 364.725 564.407 364.725C560.643 364.725 557.592 368.005 557.592 372.051C557.592 376.097 560.643 379.377 564.407 379.377Z" fill="#3498DB"/>
<path d="M341.861 301.568C345.625 301.568 348.676 298.288 348.676 294.242C348.676 290.196 345.625 286.916 341.861 286.916C338.097 286.916 335.046 290.196 335.046 294.242C335.046 298.288 338.097 301.568 341.861 301.568Z" fill="#3498DB"/>
</svg>
